<svg width="75" height="50" viewBox="0 0 75 50" fill="none" xmlns="http://www.w3.org/2000/svg">
<path d="M19.1624 44.8665V38.7678H16.9456V37.8206H22.4729V38.7678H20.2561V44.8665H19.1624ZM22.9605 46.634V39.5637H24.02V40.3987H24.103C24.204 40.2034 24.3342 40.0374 24.4937 39.9006C24.6564 39.7639 24.842 39.6581 25.0503 39.5833C25.2586 39.5084 25.4865 39.4709 25.7339 39.4709C26.1799 39.4709 26.5672 39.5849 26.896 39.8127C27.2248 40.0374 27.4787 40.3547 27.6577 40.7649C27.84 41.1718 27.9312 41.6536 27.9312 42.2102V42.22C27.9312 42.7799 27.8417 43.2649 27.6626 43.675C27.4836 44.0819 27.2297 44.3977 26.9009 44.6223C26.5721 44.8437 26.1831 44.9543 25.7339 44.9543C25.4898 44.9543 25.2619 44.9169 25.0503 44.842C24.8387 44.7639 24.6515 44.6565 24.4888 44.5198C24.326 44.3831 24.1974 44.2187 24.103 44.0266H24.02V46.634H22.9605ZM25.4312 44.0461C25.7274 44.0461 25.9813 43.9729 26.1929 43.8264C26.4045 43.6799 26.5656 43.47 26.6763 43.1965C26.7902 42.9231 26.8472 42.5976 26.8472 42.22V42.2102C26.8472 41.8293 26.7902 41.5022 26.6763 41.2288C26.5656 40.9553 26.4045 40.7454 26.1929 40.5989C25.9813 40.4524 25.7274 40.3792 25.4312 40.3792C25.1382 40.3792 24.8843 40.454 24.6695 40.6038C24.4546 40.7502 24.2902 40.9602 24.1763 41.2336C24.0624 41.5038 24.0054 41.8293 24.0054 42.2102V42.22C24.0054 42.5943 24.0624 42.9182 24.1763 43.1917C24.2902 43.4651 24.4546 43.6767 24.6695 43.8264C24.8843 43.9729 25.1382 44.0461 25.4312 44.0461ZM31.2849 44.969C30.7673 44.969 30.323 44.8583 29.9519 44.637C29.5808 44.4124 29.2944 44.095 29.0925 43.6848C28.894 43.2747 28.7947 42.7896 28.7947 42.2297V42.2249C28.7947 41.6715 28.894 41.1881 29.0925 40.7747C29.2944 40.3612 29.5776 40.039 29.9421 39.8079C30.31 39.5767 30.7397 39.4612 31.2312 39.4612C31.726 39.4612 32.1508 39.5719 32.5056 39.7932C32.8637 40.0146 33.1388 40.3254 33.3308 40.7258C33.5229 41.123 33.6189 41.5885 33.6189 42.1223V42.4934H29.3318V41.7366H33.0916L32.5837 42.4397V42.0149C32.5837 41.6373 32.5252 41.3248 32.408 41.0774C32.294 40.8267 32.1362 40.6396 31.9343 40.5159C31.7325 40.3922 31.4998 40.3303 31.2361 40.3303C30.9724 40.3303 30.7364 40.3954 30.5281 40.5256C30.323 40.6526 30.1602 40.8414 30.0398 41.092C29.9226 41.3427 29.864 41.6503 29.864 42.0149V42.4397C29.864 42.788 29.9226 43.0859 30.0398 43.3333C30.157 43.5806 30.323 43.7694 30.5379 43.8997C30.756 44.0299 31.0131 44.095 31.3093 44.095C31.5372 44.095 31.7325 44.064 31.8953 44.0022C32.0613 43.9371 32.1964 43.8573 32.3005 43.7629C32.408 43.6685 32.4812 43.5758 32.5203 43.4846L32.5398 43.4456H33.5652L33.5554 43.4895C33.5099 43.6653 33.4301 43.8411 33.3162 44.0168C33.2022 44.1894 33.0509 44.3472 32.8621 44.4905C32.6765 44.6337 32.4519 44.7493 32.1882 44.8372C31.9278 44.925 31.6267 44.969 31.2849 44.969ZM36.0645 42.5227H35.7959V44.8665H34.7314V39.5637H35.7959V41.7317H36.0596L37.9346 39.5637H39.1748L36.8506 42.1174V41.9417L39.2725 44.8665H37.959L36.0645 42.5227ZM42.133 44.969C41.6155 44.969 41.1711 44.8583 40.8 44.637C40.4289 44.4124 40.1425 44.095 39.9407 43.6848C39.7421 43.2747 39.6428 42.7896 39.6428 42.2297V42.2249C39.6428 41.6715 39.7421 41.1881 39.9407 40.7747C40.1425 40.3612 40.4257 40.039 40.7903 39.8079C41.1581 39.5767 41.5878 39.4612 42.0793 39.4612C42.5741 39.4612 42.9989 39.5719 43.3538 39.7932C43.7118 40.0146 43.9869 40.3254 44.1789 40.7258C44.371 41.123 44.467 41.5885 44.467 42.1223V42.4934H40.1799V41.7366H43.9397L43.4319 42.4397V42.0149C43.4319 41.6373 43.3733 41.3248 43.2561 41.0774C43.1422 40.8267 42.9843 40.6396 42.7825 40.5159C42.5806 40.3922 42.3479 40.3303 42.0842 40.3303C41.8205 40.3303 41.5845 40.3954 41.3762 40.5256C41.1711 40.6526 41.0084 40.8414 40.8879 41.092C40.7707 41.3427 40.7121 41.6503 40.7121 42.0149V42.4397C40.7121 42.788 40.7707 43.0859 40.8879 43.3333C41.0051 43.5806 41.1711 43.7694 41.386 43.8997C41.6041 44.0299 41.8612 44.095 42.1575 44.095C42.3853 44.095 42.5806 44.064 42.7434 44.0022C42.9094 43.9371 43.0445 43.8573 43.1487 43.7629C43.2561 43.6685 43.3293 43.5758 43.3684 43.4846L43.3879 43.4456H44.4133L44.4036 43.4895C44.358 43.6653 44.2782 43.8411 44.1643 44.0168C44.0504 44.1894 43.899 44.3472 43.7102 44.4905C43.5246 44.6337 43.3 44.7493 43.0364 44.8372C42.776 44.925 42.4748 44.969 42.133 44.969ZM45.5845 46.634V39.5637H46.644V40.3987H46.727C46.8279 40.2034 46.9581 40.0374 47.1177 39.9006C47.2804 39.7639 47.466 39.6581 47.6743 39.5833C47.8826 39.5084 48.1105 39.4709 48.3579 39.4709C48.8039 39.4709 49.1912 39.5849 49.52 39.8127C49.8488 40.0374 50.1027 40.3547 50.2817 40.7649C50.464 41.1718 50.5552 41.6536 50.5552 42.2102V42.22C50.5552 42.7799 50.4656 43.2649 50.2866 43.675C50.1076 44.0819 49.8537 44.3977 49.5249 44.6223C49.1961 44.8437 48.8071 44.9543 48.3579 44.9543C48.1137 44.9543 47.8859 44.9169 47.6743 44.842C47.4627 44.7639 47.2755 44.6565 47.1128 44.5198C46.95 44.3831 46.8214 44.2187 46.727 44.0266H46.644V46.634H45.5845ZM48.0552 44.0461C48.3514 44.0461 48.6053 43.9729 48.8169 43.8264C49.0285 43.6799 49.1896 43.47 49.3003 43.1965C49.4142 42.9231 49.4712 42.5976 49.4712 42.22V42.2102C49.4712 41.8293 49.4142 41.5022 49.3003 41.2288C49.1896 40.9553 49.0285 40.7454 48.8169 40.5989C48.6053 40.4524 48.3514 40.3792 48.0552 40.3792C47.7622 40.3792 47.5083 40.454 47.2934 40.6038C47.0786 40.7502 46.9142 40.9602 46.8003 41.2336C46.6863 41.5038 46.6294 41.8293 46.6294 42.2102V42.22C46.6294 42.5943 46.6863 42.9182 46.8003 43.1917C46.9142 43.4651 47.0786 43.6767 47.2934 43.8264C47.5083 43.9729 47.7622 44.0461 48.0552 44.0461ZM51.6775 44.8665V39.5637H52.7419V41.2043H53.782C54.3972 41.2043 54.8871 41.3704 55.2517 41.7024C55.6163 42.0312 55.7986 42.4739 55.7986 43.0305V43.0403C55.7986 43.5969 55.6163 44.0413 55.2517 44.3733C54.8871 44.7021 54.3972 44.8665 53.782 44.8665H51.6775ZM53.6941 42.0442H52.7419V44.0266H53.6941C54.0131 44.0266 54.2654 43.9371 54.4509 43.7581C54.6364 43.5758 54.7292 43.3365 54.7292 43.0403V43.0305C54.7292 42.731 54.6348 42.4918 54.446 42.3127C54.2605 42.1337 54.0098 42.0442 53.6941 42.0442ZM56.6921 44.8665V39.5637H57.7517V44.8665H56.6921Z" fill="#3772E7"/>
<path d="M36.9912 27.7422C41.9746 27.7422 46.0879 23.6289 46.0879 18.6543C46.0879 13.6797 41.9658 9.56641 36.9824 9.56641C32.0078 9.56641 27.9033 13.6797 27.9033 18.6543C27.9033 23.6289 32.0166 27.7422 36.9912 27.7422ZM37 22.2314C35.0049 22.2314 33.4053 20.6318 33.4053 18.6367C33.4053 16.6592 35.0049 15.0508 37 15.0508C38.9863 15.0508 40.5859 16.6592 40.5859 18.6367C40.5859 20.6318 38.9863 22.2314 37 22.2314Z" fill="#3772E7"/>
</svg>
