<svg width="75" height="50" viewBox="0 0 75 50" fill="none" xmlns="http://www.w3.org/2000/svg">
<path d="M13.1288 45.0374C12.4778 45.0374 11.913 44.8876 11.4345 44.5881C10.9592 44.2887 10.593 43.8639 10.3359 43.3137C10.0787 42.7636 9.95012 42.1093 9.95012 41.3508V41.3411C9.95012 40.5793 10.0787 39.9234 10.3359 39.3733C10.593 38.8232 10.9592 38.3984 11.4345 38.0989C11.9098 37.7994 12.4745 37.6497 13.1288 37.6497C13.6464 37.6497 14.1135 37.7522 14.5302 37.9573C14.9501 38.1591 15.2935 38.439 15.5605 38.7971C15.8307 39.1552 15.995 39.567 16.0536 40.0325V40.0618H14.9648L14.9599 40.0422C14.8948 39.7525 14.776 39.5019 14.6034 39.2903C14.4309 39.0787 14.2193 38.9143 13.9687 38.7971C13.718 38.6799 13.4381 38.6213 13.1288 38.6213C12.7089 38.6213 12.3443 38.732 12.0351 38.9534C11.7291 39.1747 11.4915 39.4889 11.3222 39.8958C11.1562 40.2994 11.0732 40.7812 11.0732 41.3411V41.3508C11.0732 41.9042 11.1562 42.3844 11.3222 42.7913C11.4915 43.1982 11.7291 43.5123 12.0351 43.7336C12.3443 43.955 12.7105 44.0657 13.1337 44.0657C13.443 44.0657 13.7229 44.0136 13.9736 43.9094C14.2275 43.8053 14.439 43.6571 14.6083 43.4651C14.7776 43.2698 14.8932 43.0403 14.955 42.7766L14.9648 42.7571H16.0585L16.0536 42.7815C15.9853 43.234 15.8193 43.6295 15.5556 43.968C15.2919 44.3066 14.9534 44.5702 14.54 44.759C14.1265 44.9446 13.6562 45.0374 13.1288 45.0374ZM21.0334 39.5637V40.4036H19.3634V44.8665H18.3039V40.4036H16.6339V39.5637H21.0334ZM23.3568 44.9543C23.0215 44.9543 22.7204 44.8909 22.4535 44.7639C22.1898 44.6337 21.9815 44.4498 21.8285 44.2122C21.6755 43.9745 21.599 43.6962 21.599 43.3772V43.3674C21.599 43.0484 21.6755 42.7766 21.8285 42.552C21.9848 42.3274 22.2094 42.1516 22.5023 42.0247C22.7986 41.8944 23.1566 41.8163 23.5766 41.7903L25.5346 41.6731V42.4202L23.723 42.5374C23.3585 42.5601 23.0899 42.6383 22.9174 42.7717C22.7449 42.9019 22.6586 43.0859 22.6586 43.3235V43.3333C22.6586 43.5741 22.7514 43.7646 22.9369 43.9045C23.1225 44.0413 23.3568 44.1096 23.64 44.1096C23.9037 44.1096 24.1381 44.0575 24.3432 43.9534C24.5515 43.8459 24.7143 43.7027 24.8314 43.5237C24.9486 43.3414 25.0072 43.1363 25.0072 42.9084V41.2385C25.0072 40.9456 24.9161 40.7226 24.7338 40.5696C24.5548 40.4133 24.2878 40.3352 23.933 40.3352C23.6368 40.3352 23.3943 40.3873 23.2055 40.4915C23.0199 40.5956 22.8962 40.7421 22.8344 40.9309L22.8246 40.9456H21.8041L21.809 40.9114C21.8513 40.6184 21.9669 40.3645 22.1557 40.1497C22.3477 39.9316 22.5984 39.7623 22.9076 39.6418C23.2201 39.5214 23.5766 39.4612 23.977 39.4612C24.4229 39.4612 24.8005 39.5328 25.1098 39.676C25.4223 39.816 25.6583 40.0194 25.8178 40.2864C25.9805 40.55 26.0619 40.8674 26.0619 41.2385V44.8665H25.0072V44.1145H24.9291C24.8249 44.2935 24.6947 44.4465 24.5385 44.5735C24.3822 44.6972 24.2048 44.7916 24.0063 44.8567C23.8077 44.9218 23.5912 44.9543 23.3568 44.9543ZM31.3737 39.5637V40.4036H29.7038V44.8665H28.6442V40.4036H26.9743V39.5637H31.3737ZM32.3153 44.8665V39.5637H33.37V43.2844H33.9218L33.204 43.6848L35.8554 39.5637H36.91V44.8665H35.8554V41.1311H35.3036L36.0214 40.7258L33.37 44.8665H32.3153ZM40.5226 44.969C40.0083 44.969 39.5639 44.8583 39.1896 44.637C38.8185 44.4124 38.532 44.0933 38.3302 43.6799C38.1284 43.2665 38.0275 42.7734 38.0275 42.2004V42.1907C38.0275 41.6275 38.1267 41.1425 38.3253 40.7356C38.5271 40.3287 38.8136 40.0146 39.1847 39.7932C39.559 39.5719 40.0034 39.4612 40.5177 39.4612C40.9637 39.4612 41.3461 39.5393 41.6652 39.6956C41.9874 39.8486 42.243 40.0601 42.4318 40.3303C42.6238 40.5972 42.7443 40.9016 42.7931 41.2434L42.798 41.2678H41.7775L41.7726 41.2581C41.714 40.9976 41.5789 40.7812 41.3673 40.6086C41.1557 40.4329 40.8741 40.345 40.5226 40.345C40.2296 40.345 39.9773 40.4198 39.7657 40.5696C39.5542 40.7161 39.3914 40.9277 39.2775 41.2043C39.1668 41.481 39.1114 41.8098 39.1114 42.1907V42.2004C39.1114 42.5911 39.1684 42.9264 39.2823 43.2063C39.3963 43.4862 39.559 43.7027 39.7706 43.8557C39.9822 44.0055 40.2329 44.0803 40.5226 44.0803C40.8546 44.0803 41.1232 44.0071 41.3282 43.8606C41.5366 43.7141 41.6831 43.4976 41.7677 43.2112L41.7775 43.1868L42.7931 43.1819L42.7833 43.2258C42.7215 43.5709 42.5961 43.8736 42.4073 44.134C42.2185 44.3944 41.9663 44.5995 41.6505 44.7493C41.338 44.8958 40.962 44.969 40.5226 44.969ZM47.5873 39.5637V40.4036H45.9173V44.8665H44.8578V40.4036H43.1879V39.5637H47.5873ZM48.5289 44.8665V39.5637H49.5836V43.2844H50.1354L49.4176 43.6848L52.0689 39.5637H53.1236V44.8665H52.0689V41.1311H51.5172L52.235 40.7258L49.5836 44.8665H48.5289ZM55.8329 42.5227H55.5643V44.8665H54.4998V39.5637H55.5643V41.7317H55.828L57.703 39.5637H58.9432L56.619 42.1174V41.9417L59.0409 44.8665H57.7274L55.8329 42.5227ZM61.2081 44.9543C60.8728 44.9543 60.5717 44.8909 60.3048 44.7639C60.0411 44.6337 59.8328 44.4498 59.6798 44.2122C59.5268 43.9745 59.4503 43.6962 59.4503 43.3772V43.3674C59.4503 43.0484 59.5268 42.7766 59.6798 42.552C59.836 42.3274 60.0606 42.1516 60.3536 42.0247C60.6498 41.8944 61.0079 41.8163 61.4278 41.7903L63.3858 41.6731V42.4202L61.5743 42.5374C61.2097 42.5601 60.9412 42.6383 60.7686 42.7717C60.5961 42.9019 60.5098 43.0859 60.5098 43.3235V43.3333C60.5098 43.5741 60.6026 43.7646 60.7882 43.9045C60.9737 44.0413 61.2081 44.1096 61.4913 44.1096C61.755 44.1096 61.9893 44.0575 62.1944 43.9534C62.4027 43.8459 62.5655 43.7027 62.6827 43.5237C62.7999 43.3414 62.8585 43.1363 62.8585 42.9084V41.2385C62.8585 40.9456 62.7673 40.7226 62.585 40.5696C62.406 40.4133 62.1391 40.3352 61.7843 40.3352C61.488 40.3352 61.2455 40.3873 61.0567 40.4915C60.8712 40.5956 60.7475 40.7421 60.6856 40.9309L60.6759 40.9456H59.6553L59.6602 40.9114C59.7026 40.6184 59.8181 40.3645 60.0069 40.1497C60.199 39.9316 60.4496 39.7623 60.7589 39.6418C61.0714 39.5214 61.4278 39.4612 61.8282 39.4612C62.2742 39.4612 62.6518 39.5328 62.961 39.676C63.2735 39.816 63.5095 40.0194 63.669 40.2864C63.8318 40.55 63.9132 40.8674 63.9132 41.2385V44.8665H62.8585V44.1145H62.7803C62.6762 44.2935 62.546 44.4465 62.3897 44.5735C62.2335 44.6972 62.0561 44.7916 61.8575 44.8567C61.6589 44.9218 61.4425 44.9543 61.2081 44.9543Z" fill="#AEAFB4"/>
<path d="M37.6416 26.9248C38.2568 26.9248 38.8369 26.626 39.9971 26.626C41.166 26.626 41.4912 26.9248 42.3613 26.9248C43.6621 26.9248 44.374 26.3711 44.374 25.4482C44.374 23.9014 42.7656 22.7852 40.0938 22.7852C38.7578 22.7852 38.1689 22.9434 37.4043 23.1191L36.4287 20.9219C35.4619 18.8125 33.8447 17.5293 31.7266 17.5293H30.6807C30.2939 17.5293 30.0479 17.3623 30.0479 16.9932C30.0479 16.4043 30.8125 16.2549 31.6475 16.2549C34.2842 16.2549 36.2969 17.6699 37.5186 20.5615L38.1162 21.9766C38.7139 21.8535 39.3555 21.8008 40.0059 21.8008C40.5244 21.8008 41.0078 21.8359 41.5176 21.9238C42.0625 21.5635 42.6777 21.1768 43.4951 20.8076C44.4883 21.4756 45.6045 21.9766 46.9668 21.9766C49.2695 21.9766 50.377 21.3877 50.377 19.0674C50.377 16.2812 48.3994 14.084 45.5781 14.1279L43.3105 11.0166C42.0098 9.26758 40.4014 8.44141 38.8193 8.44141C37.5186 8.44141 35.4971 9.1709 35.4971 10.2168C35.4971 10.9023 36.9385 11.8955 38.0459 12.5898L43.0469 15.7188C42.6602 16.0791 42.3262 16.29 41.8516 16.29C41.1396 16.29 40.3838 15.8418 39.3643 15.2529C36.6045 13.6182 34.5918 12.168 31.6914 12.168C28.7822 12.168 26.4795 13.8115 25.293 17.1777C24.335 17.1777 23.623 17.7842 23.623 18.6895C23.623 19.7002 24.4316 20.333 25.5479 20.333C26.8486 22.2666 28.8789 23.0137 31.4629 23.0137C31.6035 23.0137 31.7441 23.0049 31.8848 23.0049L35.4795 25.9932C36.3584 26.7842 36.9561 26.9248 37.6416 26.9248ZM46.5889 18.6895C46.1582 18.6895 45.8242 18.3291 45.8242 17.916C45.8242 17.4854 46.1758 17.1074 46.5977 17.1074C47.0283 17.1074 47.3711 17.459 47.3711 17.8721C47.3711 18.3027 47.0195 18.6895 46.5889 18.6895ZM31.085 27.6279C32.7549 27.6279 33.792 27.3203 34.6445 26.7402L31.9375 24.4814C31.8145 24.4902 31.6738 24.499 31.498 24.499C31.0586 24.499 30.3643 24.3672 29.5996 24.3672C28.624 24.3672 28.0176 24.8945 28.0176 25.6768C28.0176 26.8545 29.2217 27.6279 31.085 27.6279Z" fill="#AEAFB4"/>
</svg>
